<svg width="24" height="24" viewBox="0 0 24 24" fill="none" xmlns="http://www.w3.org/2000/svg">
<mask id="mask0_349_2502" style="mask-type:alpha" maskUnits="userSpaceOnUse" x="0" y="0" width="24" height="24">
<rect width="24" height="24" fill="#D9D9D9"/>
</mask>
<g mask="url(#mask0_349_2502)">
<path d="M17 22C15.6167 22 14.4375 21.5125 13.4625 20.5375C12.4875 19.5625 12 18.3833 12 17C12 15.6167 12.4875 14.4375 13.4625 13.4625C14.4375 12.4875 15.6167 12 17 12C18.3833 12 19.5625 12.4875 20.5375 13.4625C21.5125 14.4375 22 15.6167 22 17C22 18.3833 21.5125 19.5625 20.5375 20.5375C19.5625 21.5125 18.3833 22 17 22ZM12 22C9.68333 21.4167 7.77083 20.0875 6.2625 18.0125C4.75417 15.9375 4 13.6333 4 11.1V5L12 2L20 5V10.675C19.5667 10.4583 19.0792 10.2917 18.5375 10.175C17.9958 10.0583 17.4833 10 17 10C15.0667 10 13.4167 10.6833 12.05 12.05C10.6833 13.4167 10 15.0667 10 17C10 18.0333 10.1958 18.9667 10.5875 19.8C10.9792 20.6333 11.475 21.3583 12.075 21.975C12.0583 21.975 12.0458 21.9792 12.0375 21.9875C12.0292 21.9958 12.0167 22 12 22ZM17 17C17.4167 17 17.7708 16.8542 18.0625 16.5625C18.3542 16.2708 18.5 15.9167 18.5 15.5C18.5 15.0833 18.3542 14.7292 18.0625 14.4375C17.7708 14.1458 17.4167 14 17 14C16.5833 14 16.2292 14.1458 15.9375 14.4375C15.6458 14.7292 15.5 15.0833 15.5 15.5C15.5 15.9167 15.6458 16.2708 15.9375 16.5625C16.2292 16.8542 16.5833 17 17 17ZM17 20C17.5167 20 17.9917 19.8792 18.425 19.6375C18.8583 19.3958 19.2083 19.075 19.475 18.675C19.1083 18.4583 18.7167 18.2917 18.3 18.175C17.8833 18.0583 17.45 18 17 18C16.55 18 16.1167 18.0583 15.7 18.175C15.2833 18.2917 14.8917 18.4583 14.525 18.675C14.7917 19.075 15.1417 19.3958 15.575 19.6375C16.0083 19.8792 16.4833 20 17 20Z" fill="#333333"/>
</g>
</svg>
