<svg width="24" height="24" viewBox="0 0 24 24" fill="none" xmlns="http://www.w3.org/2000/svg">
<mask id="mask0_349_2513" style="mask-type:alpha" maskUnits="userSpaceOnUse" x="0" y="0" width="24" height="24">
<rect width="24" height="24" fill="#D9D9D9"/>
</mask>
<g mask="url(#mask0_349_2513)">
<path d="M12 20C11.2 19.3667 10.3333 18.875 9.4 18.525C8.46667 18.175 7.5 18 6.5 18C5.8 18 5.1125 18.0917 4.4375 18.275C3.7625 18.4583 3.11667 18.7167 2.5 19.05C2.15 19.2333 1.8125 19.225 1.4875 19.025C1.1625 18.825 1 18.5333 1 18.15V6.1C1 5.91667 1.04583 5.74167 1.1375 5.575C1.22917 5.40833 1.36667 5.28333 1.55 5.2C2.31667 4.8 3.11667 4.5 3.95 4.3C4.78333 4.1 5.63333 4 6.5 4C7.73333 4 8.78333 4.14167 9.65 4.425C10.5167 4.70833 11.45 5.14167 12.45 5.725C12.6333 5.825 12.7708 5.94167 12.8625 6.075C12.9542 6.20833 13 6.38333 13 6.6V17.05C13.7333 16.7 14.4708 16.4375 15.2125 16.2625C15.9542 16.0875 16.7167 16 17.5 16C18.1 16 18.6875 16.05 19.2625 16.15C19.8375 16.25 20.4167 16.4 21 16.6V4.575C21.25 4.65833 21.4958 4.75 21.7375 4.85C21.9792 4.95 22.2167 5.06667 22.45 5.2C22.6333 5.28333 22.7708 5.40833 22.8625 5.575C22.9542 5.74167 23 5.91667 23 6.1V18.15C23 18.5333 22.8375 18.825 22.5125 19.025C22.1875 19.225 21.85 19.2333 21.5 19.05C20.8833 18.7167 20.2375 18.4583 19.5625 18.275C18.8875 18.0917 18.2 18 17.5 18C16.5 18 15.5333 18.175 14.6 18.525C13.6667 18.875 12.8 19.3667 12 20ZM15.5 14V3L18.5 2V13L15.5 14Z" fill="#333333"/>
</g>
</svg>
